<svg viewBox="1 -125 511.99998 511" xmlns="http://www.w3.org/2000/svg"><path fill="#fff" d="m65 188.472656c45.464844 31.164063 92.589844 47.636719 136.285156 47.636719 66.488282 0 132.824219-38.046875 181.007813-83.746094l108.402343 109.3125 21.304688-21.128906-108.546875-109.457031 108.546875-109.460938-21.304688-21.128906-108.402343 109.3125c-48.191407-45.703125-114.507813-83.746094-181.007813-83.746094-43.695312 0-90.824218 16.472656-136.285156 47.636719-33.894531 23.234375-54.984375 46.335937-55.863281 47.308594l-9.136719 10.078125 9.136719 10.074218c.878906.972657 21.96875 24.078126 55.863281 47.308594zm136.285156-132.398437c72.167969 0 135.804688 52.496093 159.792969 75.03125-23.933594 22.542969-87.414063 75-159.792969 75-72.171875 0-135.8125-52.507813-159.789062-75.03125 23.933594-22.542969 87.410156-75 159.789062-75zm0 0"/></svg>