<?xml version="1.0" encoding="iso-8859-1"?>

<svg xmlns="http://www.w3.org/2000/svg" xmlns:xlink="http://www.w3.org/1999/xlink" version="1.1" id="Layer_1" x="0px" y="0px" viewBox="0 0 512 512" style="enable-background:new 0 0 512 512;" xml:space="preserve">
<g>
	<path fill="#fff" d="M512,318.46c0-31.062-22.935-55.394-52.212-55.394c-6.276,0-12.378,1.188-18.104,3.421   c-6.842-31.331-32.298-54.421-65.108-54.421c-7.168,0-14.009,1.144-20.471,3.405c-11.72-16.737-29.6-26.197-49.463-26.727   L271,117.459V76h30V46h-30V16h-30v30h-30v30h30v41.459l-35.643,71.286c-19.787,0.528-37.697,9.927-49.462,26.727   c-6.462-2.261-13.303-3.405-20.471-3.405c-32.786,0-58.262,23.066-65.108,54.422c-5.726-2.234-11.828-3.422-18.104-3.422   C22.934,263.066,0,287.398,0,318.46c0,23.461,13.868,41.289,30,56.869V496h452V375.33C498.132,359.749,512,341.921,512,318.46z    M376.576,242.066c21.05,0,36.923,17.783,36.923,41.364c0,21.193-14.828,39.307-40.631,62.57h-61.843   c34.454-29.903,57.745-54.879,57.745-89.235c0-4.575-0.409-9.076-1.197-13.456C370.415,242.488,373.4,242.066,376.576,242.066z    M256,447.459L242.771,421L256,394.541L269.229,421L256,447.459z M276.657,195.854c-5.557,3.041-10.732,7.015-15.415,11.91   c-1.905,1.991-3.648,4.043-5.242,6.111c-1.594-2.068-3.337-4.12-5.242-6.111c-4.682-4.895-9.858-8.869-15.415-11.91L256,154.541   L276.657,195.854z M207.115,218.7c19.23,0,29.036,17.444,33.169,27.842l3.76,9.458h23.91l3.76-9.458   c4.134-10.398,13.94-27.842,33.169-27.842c22.009,0,33.885,19.612,33.885,38.065c0,28.171-28.08,50.331-74.07,89.235H247.3   c-45.978-38.896-74.069-61.06-74.069-89.235C173.231,238.312,185.106,218.7,207.115,218.7z M135.424,242.066   c3.176,0,6.161,0.422,9.004,1.243c-0.788,4.379-1.197,8.88-1.197,13.455c0,34.355,23.291,59.332,57.745,89.235h-61.844   C113.329,322.737,98.5,304.624,98.5,283.43C98.5,259.849,114.374,242.066,135.424,242.066z M52.211,293.066   c10.465,0,16.82,7.826,19.581,12.254c4.587,15.056,13.596,28.388,24.594,40.68H43.313C33.792,335.417,30,327.25,30,318.46   C30,305.841,37.629,293.066,52.211,293.066z M60,436h61v-30H60v-30h171.729l-22.5,45l22.5,45H60V436z M280.271,466l22.5-45   l-22.5-45H452v30h-61v30h61v30H280.271z M468.686,346h-53.073c10.997-12.291,20.005-25.622,24.593-40.677   c2.759-4.427,9.114-12.257,19.582-12.257c14.582,0,22.212,12.775,22.212,25.394C482,327.25,478.208,335.417,468.686,346z"/>
	<rect fill="#fff" x="331" y="406" width="30" height="30"/>
	<rect fill="#fff" x="151" y="406" width="30" height="30"/>
</g>















</svg>
