<?xml version="1.0" encoding="iso-8859-1"?>
<!-- Generator: Adobe Illustrator 19.0.0, SVG Export Plug-In . SVG Version: 6.00 Build 0)  -->
<svg version="1.1" id="Layer_1" xmlns="http://www.w3.org/2000/svg" xmlns:xlink="http://www.w3.org/1999/xlink" x="0px" y="0px"
	 viewBox="0 0 512 512" style="enable-background:new 0 0 512 512;" xml:space="preserve">
<g>
	<g>
		<path fill="#fff" d="M511.964,166.784c-0.01-0.104-0.028-0.205-0.042-0.307c-0.018-0.129-0.035-0.258-0.059-0.386
			c-0.024-0.124-0.054-0.245-0.083-0.366c-0.025-0.104-0.05-0.208-0.08-0.312c-0.037-0.126-0.078-0.25-0.121-0.373
			c-0.02-0.057-0.035-0.116-0.056-0.173L482,86.14V57.5c0-4.143-3.357-7.5-7.5-7.5s-7.5,3.357-7.5,7.5v28.64l-29.522,78.727
			c-0.021,0.057-0.036,0.116-0.056,0.174c-0.043,0.123-0.084,0.247-0.121,0.373c-0.03,0.103-0.055,0.208-0.08,0.312
			c-0.03,0.122-0.06,0.243-0.083,0.366c-0.024,0.128-0.041,0.257-0.059,0.386c-0.014,0.103-0.032,0.204-0.042,0.307
			c-0.023,0.238-0.036,0.476-0.036,0.716v97.552l-98.5-52.07V185h2.5c4.143,0,7.5-3.357,7.5-7.5s-3.357-7.5-7.5-7.5h-6.25L263.5,75
			V35H276c4.143,0,7.5-3.357,7.5-7.5S280.143,20,276,20h-12.5V7.5c0-4.143-3.357-7.5-7.5-7.5s-7.5,3.357-7.5,7.5V20H236
			c-4.143,0-7.5,3.357-7.5,7.5s3.357,7.5,7.5,7.5h12.5v40l-71.25,95H171c-4.143,0-7.5,3.357-7.5,7.5s3.357,7.5,7.5,7.5h2.5v27.981
			L75,265.052V167.5c0-0.239-0.013-0.478-0.036-0.716c-0.01-0.104-0.028-0.205-0.042-0.307c-0.018-0.129-0.035-0.258-0.059-0.386
			c-0.024-0.124-0.054-0.245-0.083-0.366c-0.025-0.104-0.05-0.208-0.08-0.312c-0.036-0.126-0.078-0.25-0.121-0.373
			c-0.02-0.057-0.035-0.116-0.056-0.173L45,86.14V57.5c0-4.143-3.357-7.5-7.5-7.5S30,53.357,30,57.5v28.64L0.478,164.866
			c-0.021,0.057-0.036,0.116-0.056,0.174c-0.043,0.123-0.084,0.247-0.121,0.373c-0.03,0.103-0.055,0.208-0.08,0.312
			c-0.03,0.122-0.06,0.243-0.083,0.366c-0.024,0.128-0.041,0.257-0.059,0.386c-0.014,0.103-0.032,0.204-0.042,0.307
			C0.013,167.022,0,167.261,0,167.5v337c0,4.143,3.357,7.5,7.5,7.5h497c4.143,0,7.5-3.357,7.5-7.5v-337
			C512,167.261,511.987,167.022,511.964,166.784z M37.5,108.86L56.677,160H18.323L37.5,108.86z M60,497H15V245h45V497z M60,230H45
			v-22.5c0-4.143-3.357-7.5-7.5-7.5s-7.5,3.357-7.5,7.5V230H15v-55h45V230z M173.5,497H75V335h98.5V497z M173.5,290H171
			c-4.143,0-7.5,3.357-7.5,7.5s3.357,7.5,7.5,7.5h2.5v15H75v-37.981l98.5-52.071V290z M256,90l60,80H196L256,90z M248.5,497h-30v-85
			c0-19.317,12.904-35.479,30-39.195V497z M293.5,497h-30V372.805c17.096,3.717,30,19.878,30,39.195V497z M323.5,497h-15v-85
			c0-30.327-23.552-55-52.5-55s-52.5,24.673-52.5,55v85h-15V305h135V497z M323.5,217.549c0,0.048,0,72.451,0,72.451h-135v-72.403
			c0-0.048,0-32.597,0-32.597h135V217.549z M437,497h-98.5V335H437V497z M437,320h-98.5v-15h2.5c4.143,0,7.5-3.357,7.5-7.5
			s-3.357-7.5-7.5-7.5h-2.5v-60.052l98.5,52.071V320z M474.5,108.86L493.677,160h-38.354L474.5,108.86z M497,497h-45V245h45V497z
			 M497,230h-15v-22.5c0-4.143-3.357-7.5-7.5-7.5s-7.5,3.357-7.5,7.5V230h-15v-55h45V230z"/>
	</g>
</g>
<g>
	<g>
		<path fill="#fff" d="M387.75,357c-12.406,0-22.5,10.094-22.5,22.5v75c0,4.143,3.357,7.5,7.5,7.5s7.5-3.357,7.5-7.5v-75
			c0-4.136,3.364-7.5,7.5-7.5s7.5,3.364,7.5,7.5v75c0,4.143,3.357,7.5,7.5,7.5s7.5-3.357,7.5-7.5v-75
			C410.25,367.094,400.156,357,387.75,357z"/>
	</g>
</g>
<g>
	<g>
		<path fill="#fff" d="M124.25,357c-12.406,0-22.5,10.094-22.5,22.5v75c0,4.143,3.357,7.5,7.5,7.5s7.5-3.357,7.5-7.5v-75
			c0-4.136,3.364-7.5,7.5-7.5s7.5,3.364,7.5,7.5v75c0,4.143,3.357,7.5,7.5,7.5s7.5-3.357,7.5-7.5v-75
			C146.75,367.094,136.656,357,124.25,357z"/>
	</g>
</g>
<g>
	<g>
		<path fill="#fff" d="M256,200c-20.678,0-37.5,16.822-37.5,37.5S235.322,275,256,275c20.678,0,37.5-16.822,37.5-37.5
			C293.5,216.822,276.678,200,256,200z M256,260c-12.406,0-22.5-10.094-22.5-22.5S243.594,215,256,215s22.5,10.094,22.5,22.5
			S268.406,260,256,260z"/>
	</g>
</g>
<g>
</g>
<g>
</g>
<g>
</g>
<g>
</g>
<g>
</g>
<g>
</g>
<g>
</g>
<g>
</g>
<g>
</g>
<g>
</g>
<g>
</g>
<g>
</g>
<g>
</g>
<g>
</g>
<g>
</g>
</svg>
