<?xml version="1.0" encoding="iso-8859-1"?>
<!-- Generator: Adobe Illustrator 19.0.0, SVG Export Plug-In . SVG Version: 6.00 Build 0)  -->
<svg xmlns="http://www.w3.org/2000/svg" xmlns:xlink="http://www.w3.org/1999/xlink" version="1.1" id="Layer_1" x="0px" y="0px" viewBox="0 0 512 512" style="enable-background:new 0 0 512 512;" xml:space="preserve">
<path fill="#fff" id="_x3C_Group_x3E__6_" d="M423.647,317.46c5.119-82.257-8.268-152.534-33.35-222.876C370.129,38.01,316.225,0,256.163,0  c-60.278,0-114.248,38.194-134.296,95.04c-25.255,71.609-38.318,140.854-33.426,222.522C51.287,334.889,31,372.483,31,410.053V512  h450V410.053C481,372.36,460.551,334.757,423.647,317.46z M150.158,105.018C165.983,60.147,208.583,30,256.163,30  c47.409,0,89.957,30.002,105.876,74.658c22.921,64.281,35.692,127.857,32.063,203.749c-1.303-0.213-2.61-0.417-3.929-0.588  l-62.099-8.057l-6.077-24.334c24-20.597,39.003-51.68,39.003-85.521V165c0-25.344-9.496-50.739-26.74-70.004L329.788,90H182.212  c-21.857,24.42-24.896,35.316-31.212,65v40c0,31.268,13.493,60.816,38.748,81.449l-5.823,23.313c0,0-64.245,8.375-65.927,8.663  C114.6,233.348,126.951,170.821,150.158,105.018z M331,179.976v9.932c0,42.056-31.825,77.937-70.944,79.985  c-46.6,2.456-79.056-36.602-79.056-78.26v-11.738L331,179.976z M182.531,150.096c2.216-10.808,6.797-21.216,13.464-30.096h120.01  c6.685,8.901,11.271,19.337,13.48,30.175L182.531,150.096z M241,482H61v-71.947c0-13.542,3.644-26.662,10.415-38.138  c44.577,46.856,104.915,74.876,169.585,78.64V482z M241,361h-29.8v30H241v29.486c-57.007-3.764-110.089-28.885-149.138-70.604  c9.68-6.415,21.712-10.739,35.085-12.474l81.127-10.527l8.599-34.429c22.947,9.392,50.088,10.137,74.326,1.57l-0.074-0.209  c1.451-0.537,2.886-1.121,4.312-1.725l8.689,34.793l82.387,10.69c12.798,1.661,24.428,5.917,33.878,12.256  C381.137,391.579,328.033,416.72,271,420.486V391h30v-30h-30v-30h-30V361z M451,482H271v-31.445  c64.672-3.764,125.012-31.786,169.591-78.646C447.362,383.376,451,396.482,451,410.053V482z"/>















</svg>
