<?xml version="1.0" encoding="iso-8859-1"?>
<!-- Generator: Adobe Illustrator 19.0.0, SVG Export Plug-In . SVG Version: 6.00 Build 0)  -->
<svg version="1.1" id="Capa_1" xmlns="http://www.w3.org/2000/svg" xmlns:xlink="http://www.w3.org/1999/xlink" x="0px" y="0px"
	 viewBox="0 0 512 512" style="enable-background:new 0 0 512 512;" xml:space="preserve">
<g>
	<g>
		<path  fill="#fff" d="M436.076,296.61v-49.695c-1.204,0.046-2.411,0.078-3.626,0.078h-7.353c-14.324,0-27.901-3.258-40.032-9.067v209.722H511.6
			V296.61H436.076z"/>
	</g>
</g>
<g>
	<g>
		<path  fill="#fff" d="M362.829,163.6c4.64,30.194,30.795,53.392,62.268,53.392h7.353c1.218,0,2.425-0.043,3.626-0.112v-30.507L362.829,163.6z"
			/>
	</g>
</g>
<g>
	<g>
		<path  fill="#fff" d="M442.231,64.354h-13.458c-36.766,0-66.677,29.911-66.677,66.677v0.925l103.979,32.329V266.61H512V134.122
			C512,95.652,480.702,64.354,442.231,64.354z"/>
	</g>
</g>
<g>
	<g>
		<path  fill="#fff" d="M88.575,255.876L88.575,255.876c-38.671-0.001-72.167-22.572-88.013-55.23C0.205,203.899,0,207.217,0,210.607v237.04
			h126.535v-191.77H88.575z"/>
	</g>
</g>
<g>
	<g>
		<path  fill="#fff" d="M97.628,64.353H83.814c-34.738,0-63,28.262-63,63v0.761h0.116l139.698,0.543v-1.304
			C160.628,92.615,132.366,64.353,97.628,64.353z"/>
	</g>
</g>
<g>
	<g>
		<path  fill="#fff" d="M20.815,158.115c0,37.364,30.397,67.761,67.76,67.761h72.053v-67.218L20.815,158.115z"/>
	</g>
</g>
<g>
	<g>
		<path  fill="#fff" d="M256.158,258.272c-13.891,0-25.192,11.302-25.192,25.193s11.301,25.193,25.192,25.193
			c13.892,0,25.193-11.301,25.193-25.193C281.351,269.573,270.049,258.272,256.158,258.272z"/>
	</g>
</g>
<g>
	<g>
		<path  fill="#fff" d="M214.744,247.04h-65.455v79.821c19.561-6.521,39.667-11.21,60.176-14.023c-5.374-8.513-8.499-18.582-8.499-29.373
			C200.966,269.515,206.178,256.767,214.744,247.04z"/>
	</g>
</g>
<g>
	<g>
		<path  fill="#fff" d="M149.289,358.651v88.996h213.739v-88.995C295.038,333.457,217.279,333.457,149.289,358.651z"/>
	</g>
</g>
<g>
	<g>
		<path  fill="#fff" d="M297.574,247.04c8.565,9.728,13.778,22.476,13.778,36.426c0,10.791-3.124,20.859-8.499,29.373
			c20.508,2.813,40.615,7.502,60.176,14.023V247.04H297.574z"/>
	</g>
</g>
<g>
	<g>
		<path  fill="#fff" d="M273.383,148.71h-34.451c-20.969,0-37.967,16.999-37.967,37.967v0.001c0.001,20.969,16.999,37.967,37.968,37.967h34.451
			c20.969,0,37.967-16.999,37.967-37.967C311.351,165.709,294.352,148.71,273.383,148.71z"/>
	</g>
</g>
<g>
</g>
<g>
</g>
<g>
</g>
<g>
</g>
<g>
</g>
<g>
</g>
<g>
</g>
<g>
</g>
<g>
</g>
<g>
</g>
<g>
</g>
<g>
</g>
<g>
</g>
<g>
</g>
<g>
</g>
</svg>
