<?xml version="1.0" encoding="iso-8859-1"?>
<!-- Generator: Adobe Illustrator 19.0.0, SVG Export Plug-In . SVG Version: 6.00 Build 0)  -->
<svg version="1.1" id="Layer_1" xmlns="http://www.w3.org/2000/svg" xmlns:xlink="http://www.w3.org/1999/xlink" x="0px" y="0px"
	 viewBox="0 0 512.001 512.001" style="enable-background:new 0 0 512.001 512.001;" xml:space="preserve">
<g>
	<g>
		<path fill="#fff" d="M221,138.172h-20c-4.143,0-7.5,3.357-7.5,7.5s3.358,7.5,7.5,7.5h12.65c0.694,3.423,3.721,6,7.35,6
			c4.143,0,7.5-3.357,7.5-7.5v-6C228.5,141.529,225.143,138.172,221,138.172z"/>
	</g>
</g>
<g>
	<g>
		<path fill="#fff" d="M301,138.172h-20c-4.143,0-7.5,3.357-7.5,7.5v6c0,4.142,3.358,7.5,7.5,7.5c3.629,0,6.655-2.577,7.35-6H301
			c4.143,0,7.5-3.357,7.5-7.5S305.143,138.172,301,138.172z"/>
	</g>
</g>
<g>
	<g>
		<circle fill="#fff" cx="307.5" cy="467" r="7.5"/>
	</g>
</g>
<g>
	<g>
		<path fill="#fff" d="M399.773,298.169c0.481-2.866,0.728-5.764,0.728-8.669c0-13.069-4.793-25.44-13.37-35c8.577-9.56,13.37-21.931,13.37-35
			c0-11.96-4.128-23.401-11.35-32.545c4.211-13.714,6.35-27.973,6.35-42.455C395.5,64.822,330.679,0,251,0S106.5,64.822,106.5,144.5
			c0,14.483,2.139,28.743,6.35,42.456c-7.221,9.143-11.35,20.585-11.35,32.544c0,13.069,4.793,25.44,13.37,35
			c-8.577,9.56-13.37,21.931-13.37,35c0,6.476,1.216,12.902,3.531,18.909C86.537,321.978,74.5,343.856,74.5,368.5v136
			c0,4.143,3.357,7.5,7.5,7.5h102.897c0.005,0,0.01,0.001,0.015,0.001s0.01-0.001,0.015-0.001H430c4.143,0,7.5-3.357,7.5-7.5v-136
			C437.5,339.192,422.497,313.331,399.773,298.169z M371.557,260.331c8.861,7.168,13.943,17.8,13.943,29.169
			c0,0.332-0.026,0.663-0.034,0.995c-9.808-4.097-20.545-6.391-31.801-6.478c1.2-6.325,1.835-12.848,1.835-19.517v-67.083
			c5.849-1.192,11.201-3.757,15.719-7.331c8.913,7.058,14.281,17.898,14.281,29.414c0,11.369-5.082,22.001-13.943,29.169
			c-1.761,1.424-2.783,3.566-2.783,5.831S369.797,258.907,371.557,260.331z M154,167c-4.143,0-7.5,3.357-7.5,7.5v7.382
			c-8.729-3.096-15-11.433-15-21.21c0-9.824,6.331-18.192,15.125-21.252c-0.081,1.684-0.125,3.377-0.125,5.08
			c0,4.143,3.357,7.5,7.5,7.5s7.5-3.357,7.5-7.5c0-7.768,0.997-15.308,2.866-22.5H184c29.41,0,54.895-17.13,67-41.937
			C263.107,104.87,288.591,122,318,122h19.634c1.869,7.192,2.866,14.732,2.866,22.5c0,4.143,3.357,7.5,7.5,7.5s7.5-3.357,7.5-7.5
			c0-1.703-0.044-3.397-0.125-5.08c8.794,3.061,15.125,11.429,15.125,21.252c0,9.777-6.271,18.114-15,21.21V174.5
			c0-4.143-3.357-7.5-7.5-7.5s-7.5,3.357-7.5,7.5V197h-45.152c-10.166-14.179-26.784-22.828-44.348-22.828
			c-17.564,0-34.182,8.649-44.348,22.828H161.5v-22.5C161.5,170.357,158.143,167,154,167z M169.747,107
			c13.142-28.361,40.703-48.728,73.218-51.635C239.102,84.467,214.143,107,184,107H169.747z M259.036,55.365
			c32.515,2.907,60.076,23.274,73.218,51.635H318C287.859,107,262.899,84.467,259.036,55.365z M251,15
			c70.551,0,128.099,56.713,129.468,126.943c-5.634-9.725-15.505-16.704-27.075-18.378C343.671,75.942,301.455,40,251,40
			c-50.454,0-92.669,35.942-102.392,83.565c-11.57,1.674-21.441,8.652-27.075,18.378C122.901,71.713,180.45,15,251,15z
			 M130.445,248.669c-8.861-7.168-13.943-17.8-13.943-29.169c0-11.516,5.367-22.356,14.281-29.414
			c4.519,3.575,9.871,6.139,15.719,7.331V264.5c0,10.115,1.441,20.017,4.225,29.5H149c-10.976,0-21.394,2.405-30.785,6.685
			c-1.124-3.606-1.715-7.382-1.715-11.185c0-11.369,5.082-22.001,13.943-29.169c1.761-1.424,2.783-3.566,2.783-5.831
			C133.227,252.235,132.206,250.093,130.445,248.669z M180.648,497H149.5V394.5c0-4.143-3.357-7.5-7.5-7.5s-7.5,3.357-7.5,7.5V497
			h-45V368.5c0-32.809,26.691-59.5,59.5-59.5h7.426c2.811,5.951,6.192,11.67,10.146,17.082c1.469,2.011,3.75,3.077,6.063,3.077
			c1.535,0,3.084-0.47,4.418-1.444c3.345-2.443,4.076-7.136,1.633-10.48C167.443,301.844,161.5,283.608,161.5,264.5V212h49.189
			c2.633,0,5.072-1.38,6.429-3.637c7.222-12.017,19.888-19.191,33.882-19.191s26.66,7.175,33.882,19.191
			c1.356,2.257,3.796,3.637,6.429,3.637H340.5v52.5c0,49.351-40.149,89.5-89.5,89.5c-19.108,0-37.344-5.942-52.734-17.186
			c-3.343-2.442-8.036-1.712-10.48,1.633c-2.443,3.345-1.712,8.037,1.633,10.48C207.394,362.059,228.69,369,251,369
			c1.894,0,3.776-0.054,5.645-0.154L180.648,497z M422.5,497h-55V394.5c0-4.143-3.357-7.5-7.5-7.5s-7.5,3.357-7.5,7.5V497H198.088
			l77.668-130.97c34.459-8.403,62.277-33.935,73.886-67.03H353c38.322,0,69.5,31.178,69.5,69.5V497z"/>
	</g>
</g>
<g>
	<g>
		<path fill="#fff" d="M256,212h-10c-4.143,0-7.5,3.357-7.5,7.5s3.358,7.5,7.5,7.5h10c4.143,0,7.5-3.357,7.5-7.5S260.143,212,256,212z"/>
	</g>
</g>
<g>
	<g>
		<circle fill="#fff" cx="360" cy="338.5" r="7.5"/>
	</g>
</g>
<g>
	<g>
		<circle fill="#fff" cx="390" cy="368.5" r="7.5"/>
	</g>
</g>
<g>
</g>
<g>
</g>
<g>
</g>
<g>
</g>
<g>
</g>
<g>
</g>
<g>
</g>
<g>
</g>
<g>
</g>
<g>
</g>
<g>
</g>
<g>
</g>
<g>
</g>
<g>
</g>
<g>
</g>
</svg>
