<?xml version="1.0" encoding="iso-8859-1"?>
<!-- Generator: Adobe Illustrator 22.1.0, SVG Export Plug-In . SVG Version: 6.00 Build 0)  -->
<svg xmlns="http://www.w3.org/2000/svg" xmlns:xlink="http://www.w3.org/1999/xlink" version="1.1" id="Layer_1_1_" x="0px" y="0px" viewBox="0 0 64 64"  xml:space="preserve">
<g>
	<path fill="#fff" d="M56,35v-8h-2v-1.184c1.161-0.414,2-1.514,2-2.816v-0.171c0-0.801-0.312-1.555-0.879-2.122L53,18.586l-2.121,2.121   C50.312,21.273,50,22.027,50,22.829V23c0,1.302,0.839,2.402,2,2.816V27h-2v8h-4v-8h-2v-1.184c1.161-0.414,2-1.514,2-2.816v-0.171   c0-0.801-0.312-1.555-0.879-2.122L43,18.586l-2.121,2.121C40.312,21.273,40,22.027,40,22.829V23c0,1.302,0.839,2.402,2,2.816V27h-2   v8h-4V15h6V7h-6V1h-8v6h-6v8h6v20h-4v-8h-2v-1.184c1.161-0.414,2-1.514,2-2.816v-0.171c0-0.801-0.312-1.555-0.879-2.122L21,18.586   l-2.121,2.121C18.312,21.273,18,22.027,18,22.829V23c0,1.302,0.839,2.402,2,2.816V27h-2v8h-4v-8h-2v-1.184   c1.161-0.414,2-1.514,2-2.816v-0.171c0-0.801-0.312-1.555-0.879-2.122L11,18.586l-2.121,2.121C8.312,21.273,8,22.027,8,22.829V23   c0,1.302,0.839,2.402,2,2.816V27H8v8H1v2h29V13h-6V9h6V3h4v6h6v4h-6v24h29v-2H56z M52,22.829c0-0.267,0.104-0.519,0.293-0.708   L53,21.414l0.707,0.707C53.896,22.31,54,22.562,54,22.829V23c0,0.551-0.448,1-1,1s-1-0.449-1-1V22.829z M42,22.829   c0-0.267,0.104-0.519,0.293-0.708L43,21.414l0.707,0.707C43.896,22.31,44,22.562,44,22.829V23c0,0.551-0.448,1-1,1s-1-0.449-1-1   V22.829z M20,22.829c0-0.267,0.104-0.519,0.293-0.708L21,21.414l0.707,0.707C21.896,22.31,22,22.562,22,22.829V23   c0,0.551-0.448,1-1,1s-1-0.449-1-1V22.829z M10,22.829c0-0.267,0.104-0.519,0.293-0.708L11,21.414l0.707,0.707   C11.896,22.31,12,22.562,12,22.829V23c0,0.551-0.448,1-1,1s-1-0.449-1-1V22.829z M20,29h2v6h-2V29z M10,29h2v6h-2V29z M52,29h2v6   h-2V29z M42,29h2v6h-2V29z"/>
	<path fill="#fff" d="M60.099,51.417L56,50.246v-0.271c1.207-0.914,2-2.348,2-3.974v-2c0-2.757-2.243-5-5-5s-5,2.243-5,5v2   c0,1.627,0.793,3.061,2,3.974v0.271l-4.099,1.171C44.193,51.904,43,53.486,43,55.263V61h-1v-5.737c0-1.777-1.193-3.358-2.901-3.846   L35,50.246v-0.271c1.207-0.914,2-2.348,2-3.974v-2c0-2.757-2.243-5-5-5s-5,2.243-5,5v2c0,1.627,0.793,3.061,2,3.974v0.271   l-4.099,1.171C23.193,51.904,22,53.486,22,55.263V61h-1v-5.737c0-1.777-1.193-3.358-2.901-3.846L14,50.246v-0.271   c1.207-0.914,2-2.348,2-3.974v-2c0-2.757-2.243-5-5-5s-5,2.243-5,5v2c0,1.627,0.793,3.061,2,3.974v0.271l-4.099,1.171   C2.193,51.904,1,53.486,1,55.263V63h62v-7.737C63,53.486,61.807,51.904,60.099,51.417z M50,44c0-1.654,1.346-3,3-3s3,1.346,3,3v2   c0,1.654-1.346,3-3,3s-3-1.346-3-3V44z M46.45,53.34L52,51.754v-0.855C52.323,50.965,52.658,51,53,51s0.677-0.035,1-0.101v0.855   l5.55,1.585c0.854,0.244,1.45,1.035,1.45,1.923V57H45v-1.737C45,54.375,45.597,53.584,46.45,53.34z M52,59v2h-2v-2H52z M54,59h2v2   h-2V59z M45,59h3v2h-3V59z M31,59v2h-2v-2H31z M33,59h2v2h-2V59z M37,59h3v2h-3V59z M29,44c0-1.654,1.346-3,3-3s3,1.346,3,3v2   c0,1.654-1.346,3-3,3s-3-1.346-3-3V44z M25.45,53.34L31,51.754v-0.855C31.323,50.965,31.658,51,32,51s0.677-0.035,1-0.101v0.855   l5.55,1.585c0.854,0.244,1.45,1.035,1.45,1.923V57H24v-1.737C24,54.375,24.597,53.584,25.45,53.34z M24,59h3v2h-3V59z M10,59v2H8   v-2H10z M12,59h2v2h-2V59z M16,59h3v2h-3V59z M8,44c0-1.654,1.346-3,3-3s3,1.346,3,3v2c0,1.654-1.346,3-3,3s-3-1.346-3-3V44z    M4.45,53.34L10,51.754v-0.855C10.323,50.965,10.658,51,11,51s0.677-0.035,1-0.101v0.855l5.55,1.585   c0.854,0.244,1.45,1.035,1.45,1.923V57H3v-1.737C3,54.375,3.597,53.584,4.45,53.34z M3,59h3v2H3V59z M58,61v-2h3v2H58z"/>
</g>
</svg>
